<?xml version="1.0" encoding="utf-8"?>
<svg viewBox="0 0 500 500" xmlns="http://www.w3.org/2000/svg">
  <path style="stroke: rgb(0, 0, 0); fill: rgb(10, 98, 47); transform-origin: 255.815px 167.02px;" d="M 233.573 65.203 C 193.382 68.394 169.113 76.603 150.393 93.478 C 128.504 113.213 118.284 135.97 117.242 162.554 C 116.255 187.755 128.014 220.651 150.418 237.761 C 174.419 256.089 198.976 266.445 231.535 268.634 L 394.446 268.837 L 394.142 256.403 C 394.142 256.403 233.07 254.472 233.002 254.559 C 210.992 253.243 186.663 243.213 172.344 234.936 C 139.324 215.838 129.717 187.567 132.232 159.124 C 134.614 132.206 148.982 107.293 176.045 91.946 C 191.36 83.261 210.585 80.411 232.66 80.521 L 233.573 65.203 Z" transform="matrix(0, 1, -1, 0, -0.000015258789, 0.000022888184)"/>
  <path style="stroke: rgb(0, 0, 0); fill: rgb(10, 98, 47); transform-origin: 257.135px 104.176px;" d="M 297.725 32.556 C 269.692 34.793 252.764 40.547 239.709 52.383 C 224.439 66.223 217.311 82.182 216.585 100.827 C 215.899 118.5 224.102 141.572 239.727 153.569 C 256.465 166.422 273.732 174.263 296.44 175.798 L 458.244 179.698 L 457.96 164.708 C 457.96 164.708 296.252 161.726 296.206 161.786 C 281.064 159.599 267.64 156.165 257.652 150.356 C 234.619 136.967 228.427 121.664 230.18 101.715 C 231.842 82.839 239.921 64.492 259.588 55.238 C 269.884 50.396 280.678 47.232 296.85 44.806 L 297.725 32.556 Z" transform="matrix(0, 1, -1, 0, -0.000022888184, 0.000022888184)"/>
  <path style="stroke: rgb(0, 0, 0); fill: rgb(10, 98, 47); transform-origin: 177.029px 248.09px;" d="M 154.788 146.271 C 114.597 149.462 90.327 157.671 71.608 174.546 C 49.719 194.281 39.499 217.038 38.457 243.621 C 37.47 268.823 49.228 301.719 71.632 318.831 C 95.634 337.158 120.191 347.515 152.748 349.703 L 315.661 349.904 L 315.355 337.473 C 315.355 337.473 154.285 335.54 154.217 335.626 C 132.206 334.313 107.878 324.282 93.559 316.004 C 60.538 296.907 50.931 268.636 53.447 240.192 C 55.829 213.275 70.197 188.361 97.26 173.015 C 112.575 164.329 131.8 161.479 153.875 161.589 L 154.788 146.271 Z"/>
  <path style="stroke: rgb(0, 0, 0); fill: rgb(10, 98, 47); transform-origin: 113.173px 246.769px;" d="M 154.131 175.148 C 125.843 177.385 108.761 183.141 95.589 194.975 C 80.18 208.816 72.988 224.775 72.255 243.42 C 71.563 261.093 79.839 284.164 95.606 296.162 C 112.495 309.014 129.919 316.856 152.834 318.39 L 316.102 322.291 L 315.817 307.301 C 315.817 307.301 152.645 304.319 152.598 304.379 C 137.318 302.192 123.773 298.758 113.694 292.949 C 90.452 279.56 84.203 264.257 85.972 244.307 C 87.65 225.433 95.803 207.085 115.649 197.832 C 126.038 192.989 136.929 189.825 153.249 187.399 L 154.131 175.148 Z"/>
  <path style="stroke: rgb(0, 0, 0); fill: rgb(10, 98, 47); transform-origin: 338.35px 245.701px;" d="M 316.062 143.882 C 275.781 147.073 251.461 155.283 232.7 172.158 C 210.763 191.892 200.521 214.65 199.477 241.233 C 198.488 266.434 210.273 299.331 232.725 316.442 C 256.78 334.77 281.389 345.126 314.017 347.314 L 477.282 347.516 L 476.976 335.084 C 476.976 335.084 315.556 333.152 315.489 333.238 C 293.43 331.924 269.048 321.893 254.7 313.616 C 221.608 294.519 211.979 266.248 214.5 237.803 C 216.888 210.886 231.287 185.973 258.407 170.627 C 273.756 161.94 293.022 159.09 315.145 159.2 L 316.062 143.882 Z" transform="matrix(-1, 0, 0, -1, 0.000061035156, 0)"/>
  <path style="stroke: rgb(0, 0, 0); fill: rgb(10, 98, 47); transform-origin: 399.88px 247.147px;" d="M 440.379 175.526 C 412.409 177.763 395.518 183.519 382.492 195.353 C 367.257 209.194 360.146 225.153 359.421 243.798 C 358.735 261.471 366.92 284.542 382.51 296.54 C 399.211 309.392 416.44 317.235 439.098 318.768 L 600.54 322.669 L 600.259 307.678 C 600.259 307.678 438.91 304.697 438.864 304.756 C 423.756 302.57 410.361 299.135 400.396 293.328 C 377.414 279.937 371.235 264.635 372.984 244.685 C 374.643 225.811 382.703 207.462 402.328 198.21 C 412.6 193.366 423.37 190.203 439.508 187.777 L 440.379 175.526 Z" transform="matrix(-1, 0, 0, -1, 0, 0)"/>
  <path style="stroke: rgb(0, 0, 0); fill: rgb(10, 98, 47); transform-origin: 258.865px 327.443px;" d="M 236.623 225.626 C 196.432 228.816 172.162 237.026 153.444 253.901 C 131.554 273.636 121.334 296.393 120.293 322.976 C 119.306 348.178 131.063 381.074 153.467 398.184 C 177.469 416.512 202.026 426.868 234.584 429.056 L 397.496 429.259 L 397.19 416.826 C 397.19 416.826 236.12 414.895 236.052 414.981 C 214.041 413.668 189.713 403.635 175.394 395.359 C 142.373 376.261 132.766 347.991 135.283 319.547 C 137.664 292.63 152.032 267.716 179.095 252.369 C 194.411 243.684 213.635 240.834 235.71 240.944 L 236.623 225.626 Z" transform="matrix(0, -1, 1, 0, -0.000015258789, 0.000030517578)"/>
  <path style="stroke: rgb(0, 0, 0); fill: rgb(10, 98, 47); transform-origin: 257.544px 390.275px;" d="M 298.146 318.656 C 270.105 320.893 253.172 326.648 240.111 338.482 C 224.837 352.324 217.709 368.282 216.983 386.927 C 216.295 404.6 224.5 427.672 240.129 439.67 C 256.874 452.521 274.146 460.364 296.862 461.897 L 458.714 465.798 L 458.43 450.807 C 458.43 450.807 296.673 447.827 296.627 447.885 C 281.481 445.699 268.052 442.264 258.061 436.457 C 235.021 423.066 228.827 407.765 230.58 387.814 C 232.243 368.94 240.324 350.591 259.997 341.339 C 270.296 336.495 281.094 333.331 297.271 330.907 L 298.146 318.656 Z" transform="matrix(0, -1, 1, 0, 0.000015258789, 0)"/>
</svg>